<svg width="716" height="729" viewBox="0 0 716 729" fill="none" xmlns="http://www.w3.org/2000/svg">
<path opacity="0.11" d="M387.596 723.589C551.016 723.589 683.494 705.881 683.494 684.037C683.494 662.193 551.016 644.485 387.596 644.485C224.177 644.485 91.699 662.193 91.699 684.037C91.699 705.881 224.177 723.589 387.596 723.589Z" fill="#2A94F4"/>
<path opacity="0.11" d="M702.398 461.537C705.932 546.759 620.959 739.047 372.846 727.548C139.061 716.713 -92.2786 533.992 38.8039 245.615C165.476 -33.0592 393.397 -9.9176 473.742 12.1522C562.579 36.5544 816.368 135.408 671.18 299.934C438.221 563.922 695.194 287.781 702.398 461.537Z" fill="#2A94F4"/>
<path d="M273.995 190.624L222.217 141.737L131.665 234.197L183.438 283.079C203.905 244.344 235.466 212.173 273.995 190.624Z" fill="#86F062"/>
<path d="M157.736 386.858C157.736 364.575 161.042 343.053 167.169 322.721H95.3486V450.994H167.169C161.042 430.663 157.736 409.141 157.736 386.858Z" fill="#86F062"/>
<path d="M387.596 161.169C410.29 161.169 432.209 164.414 452.917 170.43V99.9129H322.274V170.43C342.982 164.414 364.901 161.169 387.596 161.169Z" fill="#86F062"/>
<path d="M591.753 283.079L643.526 234.197L552.973 141.737L501.195 190.624C539.725 212.173 571.286 244.344 591.753 283.079Z" fill="#86F062"/>
<path d="M608.023 322.721C614.15 343.053 617.455 364.575 617.455 386.858C617.455 409.141 614.15 430.662 608.023 450.994H679.843V322.721H608.023Z" fill="#86F062"/>
<path d="M501.195 583.093L552.973 631.979L643.526 539.519L591.753 490.637C571.286 529.373 539.725 561.543 501.195 583.093Z" fill="#86F062"/>
<path d="M183.438 490.636L131.665 539.518L222.218 631.979L273.996 583.092C235.466 561.543 203.905 529.373 183.438 490.636Z" fill="#86F062"/>
<path d="M387.596 612.547C364.901 612.547 342.982 609.302 322.274 603.286V673.803H452.917V603.286C432.209 609.302 410.29 612.547 387.596 612.547Z" fill="#86F062"/>
<path d="M637.147 381.194C634.132 245.893 521.56 137.1 383.035 137.1C353.866 137.1 325.873 141.987 299.778 150.864C280.804 157.32 262.897 165.977 246.276 176.435C228.356 187.711 211.94 201.088 197.458 216.283C181.701 232.815 168.17 251.417 157.421 271.681C139.155 306.114 128.78 345.226 128.78 386.742C128.78 394.598 129.181 402.36 129.902 410.03C139.877 515.858 217.103 602.544 319.247 628.456C339.632 633.627 361.004 636.385 383.035 636.385C523.455 636.385 637.29 524.616 637.29 386.742C637.29 384.883 637.189 383.046 637.147 381.194ZM383.035 549.282C368.653 549.282 354.701 547.476 341.398 544.091C273.623 526.852 222.805 468.495 217.969 397.765C217.719 394.113 217.491 390.455 217.491 386.742C217.491 359.106 224.571 333.118 236.966 310.338C244.727 296.078 254.637 283.137 266.189 271.808C274.354 263.8 283.391 256.666 293.096 250.452C304.847 242.929 317.592 236.78 331.175 232.383C347.492 227.1 364.915 224.201 383.036 224.201C472.567 224.201 545.451 293.998 548.435 381.194C548.5 383.039 548.579 384.882 548.579 386.742C548.578 476.511 474.461 549.282 383.035 549.282Z" fill="#86F062"/>
<path fill-rule="evenodd" clip-rule="evenodd" d="M260.318 500.624C260.318 500.624 251.818 506.854 247.471 510.039C245.974 511.137 243.934 511.19 242.378 510.175C240.643 509.042 239.46 507.254 239.11 505.237C238.761 503.22 239.274 501.15 240.53 499.518C244.004 495 248.076 489.705 248.076 489.705L260.318 500.624Z" fill="#FCD2B1"/>
<path fill-rule="evenodd" clip-rule="evenodd" d="M410.147 447.419C416.484 451.996 427.851 456.73 431.985 461.928C458.538 495.32 430.51 520.973 392.266 495.329C330.8 454.111 337.384 438.703 259.781 505.81L242.2 492.298C299.194 399.287 321.362 383.295 410.147 447.419Z" fill="#055231"/>
<path fill-rule="evenodd" clip-rule="evenodd" d="M338.176 604.345C338.176 604.345 334.854 616.428 333.154 622.609C332.595 624.644 330.59 625.962 328.46 625.694C327.058 625.518 325.783 624.802 324.919 623.704C324.054 622.606 323.669 621.216 323.849 619.84C324.853 612.133 326.621 598.565 326.621 598.565L338.176 604.345Z" fill="#FCD2B1"/>
<path fill-rule="evenodd" clip-rule="evenodd" d="M337.434 620.775C337.404 619.915 320.353 618.455 320.153 619.115C320.096 619.198 320.068 619.291 320.04 619.385C317.304 628.423 308.342 634.22 298.803 633.115C298.255 633.051 297.699 633.09 297.165 633.229C291.266 634.776 287.988 638.061 287.393 643.132C304.052 645.29 320.973 644.896 338.176 641.747L337.434 620.775Z" fill="#303030"/>
<path fill-rule="evenodd" clip-rule="evenodd" d="M251.064 510.442C251.469 509.679 237.372 500.149 236.868 500.626C236.776 500.67 236.705 500.737 236.633 500.805C229.712 507.343 219.004 508.042 211.262 502.461C210.817 502.141 210.314 501.903 209.78 501.764C203.871 500.252 199.369 501.522 196.304 505.645C209.709 515.593 224.624 523.447 241.17 529.042L251.064 510.442Z" fill="#303030"/>
<path d="M224.785 514.912C224.785 514.912 224.848 514.937 224.785 514.912V514.912Z" fill="#0B4870"/>
<path fill-rule="evenodd" clip-rule="evenodd" d="M433.475 482.341C441.337 482.645 453.453 480.311 459.845 482.341C500.896 495.383 486.991 543.95 440.679 543.755C366.246 543.441 365.357 532.035 340.74 608.761L322.702 607.074C316.814 498.68 323.343 478.092 433.475 482.341Z" fill="#055231"/>
<path fill-rule="evenodd" clip-rule="evenodd" d="M444.255 442.029C444.255 442.029 455.793 449.709 460.969 444.259C466.144 438.809 462.556 455.452 462.556 455.452L456.672 461.536L446.017 451.509L435.232 440.215L444.255 442.029Z" fill="#FCD2B1"/>
<path fill-rule="evenodd" clip-rule="evenodd" d="M504.143 389.878C496.651 381.603 483.167 367.076 483.167 367.076C483.167 367.076 459.925 374.437 462.557 388.685C465.188 402.934 466.714 414.547 466.714 414.547L496.529 406.497C496.529 406.497 511.634 398.153 504.143 389.878Z" fill="#FCD2B1"/>
<path fill-rule="evenodd" clip-rule="evenodd" d="M462.491 388.685C462.491 388.685 470.274 462.978 442.386 468.709L440.678 482.341C440.678 482.341 466.383 475.714 472.004 464.464C477.625 453.213 484.433 396.82 484.433 396.82C473.984 397.594 466.389 395.196 462.491 388.685Z" fill="#009254"/>
<path fill-rule="evenodd" clip-rule="evenodd" d="M434.699 326.515C424.479 333.774 420.591 346.794 423.557 359.585C424.085 361.861 426.497 372.658 429.425 376.809C444.211 397.765 468.987 392.272 478.284 385.669C492.622 375.486 494.498 353.963 482.47 337.639C470.442 321.315 449.036 316.331 434.699 326.515Z" fill="#FFE3CA"/>
<path fill-rule="evenodd" clip-rule="evenodd" d="M403.024 345.2C404.288 371.324 445.17 345.825 446.647 339.871C446.427 348.178 450.515 354.628 458.526 359.386C458.526 359.386 456.783 367.778 464.336 371.581C471.887 375.384 483.943 383.888 490.394 376.652C494.801 371.708 495.897 361.101 496.866 352.273C501.044 314.203 468.005 318.99 460.81 315.71C460.811 315.71 400.846 300.204 403.024 345.2Z" fill="#3E3E3E"/>
<path fill-rule="evenodd" clip-rule="evenodd" d="M457.623 360.797C457.623 356.089 461.509 352.273 466.304 352.273C471.098 352.273 474.986 356.089 474.986 360.797C474.986 361.07 474.986 361.347 474.986 361.622C474.986 366.785 470.724 370.969 465.467 370.969C461.423 370.969 457.623 370.969 457.623 370.969V360.797Z" fill="#FFE3CA"/>
<path d="M420.795 357.434C420.795 357.434 420.796 357.37 420.795 357.434V357.434Z" fill="#602600"/>
<path d="M489.116 326.256C489.079 326.084 489.116 326.256 489.116 326.256V326.256Z" fill="#602600"/>
<path d="M384.216 404.881L450.367 456.702L452.379 454.202L387.162 403.63C386.044 403.257 384.886 404.048 384.216 404.881Z" fill="#D3D3D3"/>
<path fill-rule="evenodd" clip-rule="evenodd" d="M386.001 404.881L451.373 455.452L440.698 482.017L375.326 431.445L386.001 404.881Z" fill="#F7F7F7"/>
<path d="M439.168 481.761C438.615 484.354 439.461 485.136 442.255 483.396L453.401 455.453C452.912 453.974 451.731 453.78 449.861 454.873L439.168 481.761Z" fill="#D3D3D3"/>
<path d="M373.49 430.857C373.166 431.829 373.254 432.038 373.983 432.691L439.332 484.083L441.36 481.595L376.949 430.942L386.454 404.881H384.215L373.49 430.857Z" fill="#D3D3D3"/>
<path fill-rule="evenodd" clip-rule="evenodd" d="M447.402 479.541C459.562 484.278 465.967 509.435 469.004 538.102C584.446 506.526 546.012 413.073 498.525 383.72C496.515 393.216 489.758 395.38 478.527 396.82C478.206 427.866 476.324 445.503 447.402 479.541Z" fill="#0F995F"/>
<path fill-rule="evenodd" clip-rule="evenodd" d="M457.151 483.668C453.576 482.235 450.462 481.25 448.136 480.603C445.558 479.944 443.416 478.187 442.301 475.812C440.115 471.112 436.551 467.065 431.526 463.705C430.579 463.076 429.799 462.236 429.247 461.255C428.38 459.733 427.191 457.621 427.191 457.621C426.323 456.103 425.181 455.439 423.986 455.453C422.97 455.446 422.037 455.998 421.567 456.881C421.097 457.765 421.169 458.832 421.754 459.647C423.286 461.934 425.86 465.522 427.552 467.879C427.714 468.107 427.71 468.411 427.538 468.632C427.368 468.854 427.07 468.942 426.803 468.849C425.848 468.504 424.822 468.469 423.754 468.685C421.743 469.076 419.662 468.512 418.141 467.163C416.055 465.334 413.637 463.602 410.835 461.972C408.837 460.807 406.986 463.124 407.114 465.571L422.454 477.023C434.695 478.343 444.25 484.811 453.273 492.297C453.272 492.297 464.972 486.8 457.151 483.668Z" fill="#FCD2B1"/>
<path fill-rule="evenodd" clip-rule="evenodd" d="M483.42 483.397C473.688 486.398 462.264 485.414 457.427 483.828C454.165 482.757 448.996 489.594 452.599 491.649C460.56 496.189 476.031 503.595 489.248 507.477C491.581 499.294 486.92 490.309 483.42 483.397Z" fill="#FCD2B1"/>
<path fill-rule="evenodd" clip-rule="evenodd" d="M488.199 507.161C513.611 514.399 563.882 498.608 531.258 415.689C529.624 411.537 518.199 398.613 502.984 403.966C496.95 406.088 484.023 415.777 492.242 433.031C510.255 470.848 494.78 479.936 480.541 484.327C486.847 491.066 490.527 498.987 488.199 507.161Z" fill="#0E8C57"/>
<path d="M429.663 435.07C427.926 435.093 426.019 435.492 425.519 437.052C424.958 438.804 426.729 440.678 428.752 440.316C432.871 439.627 437.029 442.26 440.952 444.907C440.952 444.907 444.385 445.905 444.996 443.376C445.555 441.059 442.195 439.378 439.313 437.863C436.313 436.286 433.08 435.026 429.663 435.07Z" fill="#FCD2B1"/>
</svg>
