<svg width="855" height="554" viewBox="0 0 855 554" fill="none" xmlns="http://www.w3.org/2000/svg">
<path d="M422.094 189.026H239.909C236.878 189.026 234.42 191.435 234.42 194.406V297.057C234.42 300.028 236.878 302.437 239.909 302.437H422.094C425.126 302.437 427.583 300.028 427.583 297.057V194.406C427.583 191.435 425.126 189.026 422.094 189.026Z" fill="#6C7FD8"/>
<path d="M332.625 298.499C335.464 298.499 337.766 296.243 337.766 293.46C337.766 290.677 335.464 288.421 332.625 288.421C329.785 288.421 327.484 290.677 327.484 293.46C327.484 296.243 329.785 298.499 332.625 298.499Z" fill="#E5E1E5"/>
<path d="M96.0386 503.467C94.2349 500.523 51.7866 431.185 44.9202 413.239L46.6336 412.608C53.4411 430.403 97.1661 501.824 97.6074 502.542L96.0386 503.467Z" fill="#8B9D36"/>
<path d="M60.5964 375.157C58.7456 379.645 57.3305 384.293 56.3698 389.042C55.3876 393.692 54.6665 398.392 54.2097 403.119C53.7407 407.846 53.542 412.594 53.6147 417.343C53.6423 422.184 54.1419 427.012 55.1066 431.761C56.9663 427.276 58.3849 422.626 59.343 417.877C60.3268 413.227 61.0447 408.527 61.4933 403.798C61.9537 399.071 62.149 394.322 62.0785 389.574C62.0481 384.733 61.5519 379.906 60.5964 375.157Z" fill="#8B9D36"/>
<path d="M76.734 396.784C74.4804 400.964 72.6438 405.349 71.2496 409.875C69.8438 414.3 68.6934 418.799 67.8039 423.351C66.9026 427.9 66.2676 432.496 65.9019 437.116C65.4844 441.828 65.5371 446.568 66.0592 451.27C68.3211 447.092 70.1612 442.708 71.5534 438.18C72.9599 433.756 74.1071 429.256 74.9893 424.703C75.8828 420.152 76.5145 415.556 76.8814 410.935C77.2965 406.224 77.2471 401.485 76.734 396.784V396.784Z" fill="#8B9D36"/>
<path d="M85.6258 421.962C83.6412 425.847 82.0765 429.925 80.9571 434.13C79.8269 438.226 78.9545 442.386 78.3449 446.586C77.7236 450.785 77.3706 455.018 77.288 459.26C77.1597 463.605 77.5011 467.95 78.3065 472.224C80.2998 468.342 81.8681 464.263 82.985 460.057C84.1168 455.962 84.986 451.801 85.5874 447.599C86.201 443.399 86.5506 439.166 86.6345 434.924C86.7605 430.581 86.4224 426.236 85.6258 421.962V421.962Z" fill="#8B9D36"/>
<path d="M96.8233 447.093C94.8309 450.348 93.2416 453.824 92.0894 457.448C90.9366 460.949 90.0386 464.525 89.4021 468.15C88.7535 471.773 88.3728 475.437 88.2631 479.114C88.1063 482.908 88.4174 486.707 89.1895 490.427C91.1904 487.176 92.7832 483.7 93.9333 480.074C95.0875 476.574 95.9826 472.996 96.6116 469.37C97.2516 465.746 97.629 462.081 97.7408 458.405C97.895 454.612 97.587 450.814 96.8233 447.093V447.093Z" fill="#8B9D36"/>
<path d="M106.703 462.801C104.67 465.624 102.992 468.677 101.706 471.893C100.444 474.965 99.3948 478.116 98.5636 481.326C97.7401 484.511 97.1066 487.741 96.6661 490.998C96.4606 492.64 96.2721 494.273 96.1471 495.937C96.0824 497.633 95.8979 499.323 95.595 500.994C96.0176 500.772 96.4236 500.52 96.81 500.242L97.7962 499.273C98.425 498.612 99.0016 497.905 99.5213 497.159C100.523 495.719 101.41 494.207 102.174 492.634C103.658 489.576 104.824 486.38 105.654 483.093C106.501 479.836 107.049 476.512 107.293 473.159C107.588 469.696 107.39 466.21 106.703 462.801V462.801Z" fill="#8B9D36"/>
<path d="M51.0006 424.027C47.6803 420.457 43.9443 417.282 39.8693 414.566C35.9431 411.892 31.832 409.489 27.5658 407.375C23.3059 405.248 18.8977 403.419 14.3743 401.902C9.72813 400.288 4.90296 399.22 0 398.72C3.31294 402.298 7.04743 405.477 11.1251 408.192C15.0504 410.867 19.1639 413.266 23.4348 415.372C27.6992 417.491 32.1088 419.316 36.6316 420.834C41.2775 422.445 46.1001 423.517 51.0006 424.027V424.027Z" fill="#8B9D36"/>
<path d="M61.9347 444.044C57.6886 440.64 53.0865 437.688 48.2054 435.235C43.4651 432.797 38.5749 430.651 33.5631 428.807C28.5568 426.95 23.4356 425.406 18.2302 424.182C12.9088 422.875 7.45969 422.13 1.97632 421.962C6.21629 425.374 10.8172 428.331 15.7003 430.782C20.4397 433.221 25.3317 435.364 30.347 437.198C35.3571 439.046 40.4794 440.587 45.6844 441.812C51.0055 443.116 56.4527 443.865 61.9347 444.044V444.044Z" fill="#8B9D36"/>
<path d="M74.8054 466.294C71.0249 463.005 66.8726 460.151 62.4296 457.789C58.1359 455.451 53.6857 453.402 49.1095 451.654C44.5389 449.892 39.8498 448.442 35.0756 447.313C30.1737 446.098 25.1448 445.444 20.0894 445.364C23.8638 448.662 28.0152 451.52 32.4607 453.881C36.7534 456.219 41.2055 458.265 45.7853 460.004C50.3597 461.756 55.0499 463.203 59.8237 464.334C64.7249 465.546 69.7515 466.203 74.8054 466.294V466.294Z" fill="#8B9D36"/>
<path d="M84.977 483.419C81.6838 480.623 78.0292 478.263 74.1074 476.402C70.3556 474.573 66.4617 473.038 62.4624 471.813C58.467 470.574 54.3761 469.654 50.2296 469.061C45.9239 468.395 41.547 468.294 37.2141 468.76C40.5018 471.565 44.1559 473.929 48.0802 475.789C51.8313 477.62 55.7272 479.151 59.7297 480.367C63.7279 481.596 67.8193 482.512 71.9653 483.107C76.2698 483.77 80.6446 483.875 84.977 483.419Z" fill="#8B9D36"/>
<path d="M93.0068 498.786C89.3863 495.38 85.3772 492.394 81.0589 489.888C76.8899 487.414 72.5536 485.221 68.08 483.325C63.6123 481.416 59.0147 479.814 54.3204 478.529C49.5005 477.155 44.5335 476.336 39.52 476.09C43.1338 479.505 47.1417 482.495 51.4625 484.999C55.6306 487.475 59.9691 489.664 64.4467 491.551C68.9184 493.451 73.5172 495.05 78.2109 496.336C83.0304 497.707 87.9952 498.53 93.0068 498.786V498.786Z" fill="#8B9D36"/>
<path d="M47.4476 415.506C48.1158 410.724 47.9954 405.868 47.0912 401.124C46.2953 396.651 45.0427 392.268 43.3524 388.04C41.6781 383.807 39.5668 379.752 37.0515 375.94C34.4299 371.851 31.1482 368.207 27.3344 365.15C26.6515 369.932 26.7662 374.792 27.6739 379.538C28.4682 384.011 29.7264 388.393 31.4287 392.616C33.116 396.844 35.2327 400.896 37.7466 404.71C40.3694 408.794 43.6448 412.44 47.4476 415.506V415.506Z" fill="#8B9D36"/>
<path d="M102.757 506.397C102.737 505.203 100.514 386.472 77.21 350.307L78.7573 349.351C102.336 385.94 104.505 501.469 104.586 506.369L102.757 506.397Z" fill="#50661A"/>
<path d="M85.5596 365.852C84.8345 360.493 84.6508 355.076 85.0111 349.68C85.3153 344.423 85.9105 339.186 86.7943 333.993C87.6484 328.819 88.8105 323.697 90.1775 318.618C91.5425 313.505 93.2667 308.586 95.1088 303.346C95.6293 304.648 96.0244 305.994 96.289 307.367C96.584 308.716 96.7994 310.08 96.934 311.453C97.2196 314.147 97.3437 316.855 97.3056 319.563C97.2248 324.891 96.7269 330.205 95.8163 335.458C94.9299 340.695 93.6762 345.866 92.0642 350.935C90.4701 356.129 88.2883 361.133 85.5596 365.852Z" fill="#50661A"/>
<path d="M56.5779 292.694C60.6305 296.525 64.1058 300.901 66.899 305.692C69.6197 310.237 71.9341 315.003 73.8164 319.939C75.7157 324.868 77.1686 329.951 78.1581 335.13C79.2646 340.543 79.5696 346.084 79.064 351.582C74.9996 347.76 71.5181 343.385 68.7268 338.59C66.0037 334.047 63.6944 329.278 61.8256 324.337C59.9392 319.403 58.4919 314.319 57.4998 309.14C56.397 303.729 56.0866 298.191 56.5779 292.694V292.694Z" fill="#50661A"/>
<path d="M37.1472 322.138C41.9554 325.924 46.4963 330.025 50.7389 334.413C54.9395 338.681 58.948 343.045 62.8699 347.432L74.5221 360.539C76.4768 362.685 78.452 364.8 80.5389 366.803C82.601 368.925 85.0026 370.704 87.6492 372.068C86.0351 372.344 84.3809 372.303 82.7831 371.947C81.1717 371.632 79.5997 371.147 78.0947 370.501C75.149 369.232 72.3497 367.659 69.7443 365.808C64.6878 362.18 60.0726 357.995 55.9891 353.336C51.9274 348.771 48.2707 343.875 45.0588 338.7C41.7526 333.511 39.0963 327.95 37.1472 322.138Z" fill="#50661A"/>
<path d="M37.1472 351.582C43.0743 354.483 48.7284 357.891 54.0434 361.767C59.303 365.537 64.3628 369.568 69.203 373.844C74.0536 378.108 78.675 382.617 83.0484 387.351C87.5395 392.126 91.5861 397.285 95.1401 402.767C89.2069 399.875 83.5493 396.469 78.2349 392.59C72.9742 388.822 67.9169 384.788 63.0834 380.505C58.2396 376.233 53.6214 371.722 49.247 366.989C44.7586 362.212 40.7096 357.057 37.1472 351.582V351.582Z" fill="#50661A"/>
<path d="M39.1233 374.684C45.0945 377.407 50.8071 380.645 56.1938 384.36C61.5217 387.969 66.657 391.844 71.5794 395.97C76.5115 400.084 81.2209 404.448 85.6883 409.044C90.2745 413.679 94.4266 418.708 98.0945 424.071C92.1173 421.357 86.4012 418.122 81.015 414.404C75.6864 410.797 70.5538 406.918 65.6384 402.785C60.7127 398.663 56.0062 394.296 51.5375 389.702C46.9538 385.066 42.7994 380.04 39.1233 374.684Z" fill="#50661A"/>
<path d="M40.4402 399.377C46.3824 401.567 52.1062 404.289 57.5392 407.508C62.9023 410.624 68.0918 414.018 73.0856 417.676C78.0886 421.323 82.8859 425.232 87.4563 429.388C92.1511 433.578 96.4373 438.188 100.259 443.158C94.3123 440.977 88.5855 438.259 83.153 435.037C77.7891 431.923 72.6017 428.525 67.6138 424.859C62.6169 421.205 57.8225 417.292 53.2511 413.137C48.5589 408.946 44.2705 404.34 40.4402 399.377V399.377Z" fill="#50661A"/>
<path d="M39.1233 417.292C45.34 419.744 51.3263 422.723 57.0139 426.196C62.6383 429.568 68.0855 433.215 73.3348 437.125C78.5937 441.023 83.645 445.183 88.4685 449.589C93.4119 454.024 97.9455 458.879 102.016 464.098C95.7947 461.656 89.8055 458.68 84.1187 455.204C78.4932 451.834 73.0481 448.182 67.8048 444.265C62.5521 440.359 57.5038 436.196 52.6792 431.792C47.7384 427.355 43.2025 422.503 39.1233 417.292V417.292Z" fill="#50661A"/>
<path d="M34.5127 434.077C40.9854 437.028 47.2349 440.427 53.2136 444.25C59.1509 447.976 64.8952 451.914 70.4957 456.024C76.1123 460.111 81.5735 464.371 86.9382 468.773C92.3582 473.138 97.4781 477.684 103.086 482.185C99.4849 481.605 95.9689 480.599 92.6146 479.19C89.2935 477.829 86.0478 476.298 82.8912 474.602C76.6823 471.198 70.7126 467.39 65.0221 463.205C59.352 459.039 53.9319 454.556 48.7887 449.778C43.5482 444.985 38.7694 439.73 34.5127 434.077V434.077Z" fill="#50661A"/>
<path d="M28.9141 451.508C35.9088 454.173 42.6959 457.334 49.2212 460.967C55.7061 464.508 61.9999 468.31 68.1489 472.312C74.2989 476.313 80.3005 480.52 86.1539 484.933C89.0796 487.146 91.9774 489.398 94.8472 491.69C97.6232 494.102 100.572 496.316 103.672 498.313C101.728 498.314 99.7988 497.99 97.9669 497.353C96.1283 496.819 94.3434 496.17 92.5781 495.495C89.0573 494.125 85.6554 492.558 82.3186 490.897C75.6951 487.554 69.2728 483.84 63.0835 479.775C56.8951 475.74 50.9195 471.399 45.1796 466.77C39.3369 462.132 33.8965 457.027 28.9141 451.508V451.508Z" fill="#50661A"/>
<path d="M91.2361 386.359C91.5333 380.535 92.4124 374.754 93.8608 369.098C95.2282 363.545 96.9182 358.073 98.9226 352.709C100.913 347.341 103.219 342.089 105.83 336.983C108.445 331.743 111.583 326.771 115.198 322.138C114.911 327.964 114.036 333.748 112.586 339.404C111.219 344.957 109.525 350.428 107.511 355.788C105.512 361.154 103.202 366.403 100.592 371.511C97.9762 376.748 94.8424 381.722 91.2361 386.359Z" fill="#50661A"/>
<path d="M95.1401 406.516C96.2621 400.722 97.955 395.049 100.195 389.577C102.341 384.194 104.795 378.935 107.545 373.823C110.283 368.705 113.317 363.745 116.635 358.968C119.972 354.06 123.793 349.486 128.042 345.31C126.93 351.106 125.241 356.781 122.999 362.254C120.854 367.637 118.396 372.895 115.637 378.002C112.891 383.116 109.853 388.073 106.537 392.852C103.197 397.756 99.3804 402.333 95.1401 406.516V406.516Z" fill="#50661A"/>
<path d="M98.0945 426.008C100.019 420.127 102.496 414.434 105.493 409.002C108.389 403.644 111.577 398.443 115.043 393.421C118.496 388.39 122.227 383.548 126.22 378.917C130.243 374.163 134.712 369.789 139.569 365.852C137.654 371.737 135.181 377.433 132.18 382.865C129.286 388.224 126.094 393.423 122.62 398.439C119.159 403.465 115.424 408.304 111.432 412.936C107.408 417.688 102.943 422.064 98.0945 426.008V426.008Z" fill="#50661A"/>
<path d="M100.259 447.512C103.277 441.156 106.82 435.052 110.852 429.261C114.789 423.502 118.99 417.955 123.454 412.619C127.904 407.272 132.612 402.131 137.578 397.196C142.563 392.167 147.966 387.552 153.73 383.399C150.724 389.762 147.184 395.869 143.147 401.658C139.21 407.417 135.006 412.962 130.535 418.292C126.075 423.632 121.364 428.77 116.402 433.707C111.414 438.733 106.015 443.35 100.259 447.512V447.512Z" fill="#50661A"/>
<path d="M102.016 469.812C105.716 463.769 109.912 458.032 114.56 452.656C119.111 447.301 123.902 442.184 128.934 437.305C133.951 432.412 139.203 427.751 144.69 423.321C150.206 418.799 156.094 414.731 162.293 411.159C158.604 417.209 154.411 422.95 149.758 428.324C145.207 433.678 140.413 438.792 135.377 443.666C130.35 448.55 125.095 453.209 119.611 457.642C114.093 462.159 108.208 466.229 102.016 469.812V469.812Z" fill="#50661A"/>
<path d="M103.086 484.11C107.19 478.897 111.75 474.044 116.714 469.607C121.562 465.202 126.633 461.038 131.908 457.133C137.173 453.215 142.639 449.564 148.286 446.195C153.994 442.72 160.004 439.745 166.245 437.305C162.149 442.526 157.591 447.383 152.624 451.818C147.777 456.225 142.704 460.385 137.423 464.283C132.151 468.193 126.683 471.84 121.037 475.211C115.328 478.683 109.322 481.661 103.086 484.11V484.11Z" fill="#50661A"/>
<path d="M103.672 496.053C108.596 491.295 113.922 486.955 119.593 483.078C125.161 479.199 130.898 475.61 136.804 472.311C142.701 468.997 148.763 465.965 154.99 463.216C161.274 460.385 167.794 458.088 174.478 456.35C169.561 461.116 164.236 465.461 158.562 469.335C152.995 473.214 147.256 476.8 141.346 480.092C135.443 483.396 129.379 486.424 123.154 489.177C116.869 492.004 110.352 494.305 103.672 496.053V496.053Z" fill="#50661A"/>
<path d="M103.217 503.801C109.125 499.805 115.354 496.288 121.845 493.284C128.236 490.26 134.752 487.566 141.375 485.153C147.996 482.739 154.734 480.631 161.587 478.828C168.506 476.954 175.572 475.644 182.712 474.911C176.81 478.917 170.581 482.438 164.088 485.438C157.696 488.462 151.185 491.168 144.554 493.558C137.928 495.961 131.195 498.081 124.337 499.872C117.418 501.742 110.354 503.055 103.217 503.801Z" fill="#50661A"/>
<path d="M106.511 503.467L104.942 502.542C105.383 501.824 149.107 430.403 155.916 412.608L157.629 413.239C150.762 431.185 108.314 500.523 106.511 503.467Z" fill="#5E7C24"/>
<path d="M141.953 375.157C143.804 379.645 145.219 384.293 146.179 389.042C147.162 393.692 147.883 398.392 148.34 403.119C148.809 407.846 149.007 412.594 148.935 417.343C148.907 422.184 148.407 427.012 147.443 431.761C145.583 427.276 144.164 422.626 143.206 417.877C142.222 413.227 141.505 408.527 141.056 403.798C140.596 399.071 140.4 394.322 140.471 389.574C140.501 384.733 140.997 379.906 141.953 375.157V375.157Z" fill="#5E7C24"/>
<path d="M125.815 396.784C128.069 400.964 129.905 405.349 131.299 409.875C132.705 414.3 133.856 418.799 134.745 423.351C135.646 427.9 136.281 432.496 136.647 437.116C137.065 441.828 137.012 446.568 136.49 451.27C134.228 447.092 132.388 442.708 130.996 438.18C129.589 433.756 128.442 429.256 127.56 424.703C126.666 420.152 126.035 415.556 125.668 410.935C125.253 406.224 125.302 401.485 125.815 396.784Z" fill="#5E7C24"/>
<path d="M116.923 421.962C118.908 425.847 120.473 429.925 121.592 434.13C122.722 438.226 123.595 442.386 124.204 446.586C124.825 450.785 125.178 455.018 125.261 459.26C125.389 463.605 125.048 467.95 124.243 472.224C122.249 468.342 120.681 464.263 119.564 460.057C118.432 455.962 117.563 451.801 116.962 447.599C116.348 443.399 115.998 439.166 115.915 434.924C115.789 430.581 116.127 426.236 116.923 421.962V421.962Z" fill="#5E7C24"/>
<path d="M105.726 447.093C107.718 450.348 109.308 453.824 110.46 457.448C111.613 460.949 112.511 464.525 113.147 468.15C113.796 471.773 114.176 475.437 114.286 479.114C114.443 482.908 114.132 486.707 113.36 490.427C111.359 487.176 109.766 483.7 108.616 480.074C107.462 476.574 106.567 472.996 105.938 469.37C105.298 465.746 104.92 462.081 104.808 458.405C104.654 454.612 104.962 450.814 105.726 447.093Z" fill="#5E7C24"/>
<path d="M95.8461 462.801C97.8788 465.624 99.5567 468.677 100.844 471.893C102.105 474.965 103.154 478.116 103.986 481.326C104.809 484.511 105.443 487.741 105.883 490.998C106.089 492.64 106.277 494.273 106.402 495.937C106.467 497.633 106.651 499.323 106.954 500.994C106.532 500.772 106.126 500.52 105.739 500.242L104.753 499.273C104.124 498.612 103.548 497.905 103.028 497.158C102.026 495.719 101.14 494.207 100.375 492.634C98.8911 489.576 97.7251 486.38 96.8949 483.093C96.0482 479.836 95.4999 476.512 95.2564 473.159C94.9611 469.696 95.1595 466.21 95.8461 462.801V462.801Z" fill="#5E7C24"/>
<path d="M151.549 424.027C154.869 420.457 158.605 417.282 162.68 414.566C166.606 411.892 170.717 409.489 174.983 407.375C179.243 405.248 183.652 403.419 188.175 401.902C192.821 400.288 197.646 399.22 202.549 398.72C199.236 402.298 195.502 405.477 191.424 408.192C187.499 410.867 183.385 413.266 179.114 415.372C174.85 417.491 170.44 419.316 165.918 420.834C161.272 422.445 156.449 423.517 151.549 424.027V424.027Z" fill="#5E7C24"/>
<path d="M140.615 444.044C144.861 440.64 149.463 437.688 154.344 435.235C159.084 432.797 163.974 430.651 168.986 428.807C173.992 426.95 179.114 425.406 184.319 424.182C189.64 422.875 195.089 422.13 200.573 421.962C196.333 425.374 191.732 428.331 186.849 430.782C182.109 433.221 177.217 435.364 172.202 437.198C167.192 439.046 162.07 440.587 156.865 441.812C151.544 443.116 146.096 443.865 140.615 444.044V444.044Z" fill="#5E7C24"/>
<path d="M127.744 466.294C131.524 463.005 135.677 460.151 140.119 457.789C144.413 455.451 148.863 453.402 153.44 451.654C158.01 449.892 162.699 448.442 167.473 447.313C172.375 446.098 177.404 445.444 182.46 445.364C178.685 448.662 174.534 451.52 170.088 453.881C165.796 456.219 161.344 458.265 156.764 460.004C152.189 461.756 147.499 463.203 142.725 464.334C137.824 465.546 132.798 466.203 127.744 466.294V466.294Z" fill="#5E7C24"/>
<path d="M117.572 483.419C120.865 480.623 124.52 478.263 128.441 476.402C132.193 474.573 136.087 473.038 140.086 471.813C144.082 470.574 148.173 469.654 152.319 469.061C156.625 468.395 161.002 468.294 165.335 468.76C162.047 471.565 158.393 473.929 154.469 475.789C150.717 477.62 146.822 479.151 142.819 480.367C138.821 481.596 134.73 482.512 130.584 483.107C126.279 483.77 121.904 483.875 117.572 483.419V483.419Z" fill="#5E7C24"/>
<path d="M109.542 498.786C113.163 495.38 117.172 492.394 121.49 489.888C125.659 487.414 129.996 485.221 134.469 483.325C138.937 481.416 143.535 479.814 148.229 478.529C153.049 477.155 158.016 476.336 163.029 476.09C159.415 479.505 155.408 482.495 151.087 484.999C146.919 487.475 142.58 489.664 138.103 491.551C133.631 493.451 129.032 495.05 124.338 496.336C119.519 497.707 114.554 498.53 109.542 498.786Z" fill="#5E7C24"/>
<path d="M155.101 415.506C154.433 410.724 154.554 405.868 155.458 401.124C156.254 396.651 157.506 392.268 159.197 388.04C160.871 383.807 162.982 379.752 165.498 375.94C168.119 371.851 171.401 368.207 175.215 365.15C175.898 369.932 175.783 374.792 174.875 379.538C174.081 384.011 172.823 388.393 171.12 392.616C169.433 396.844 167.316 400.896 164.802 404.71C162.18 408.794 158.904 412.44 155.101 415.506V415.506Z" fill="#5E7C24"/>
<path d="M116.791 554H83.7271L73.0902 498.688C73.0276 498.371 73.037 498.044 73.1178 497.731C73.1986 497.418 73.3489 497.126 73.5579 496.876C73.7668 496.626 74.0294 496.425 74.3269 496.286C74.6243 496.147 74.9494 496.074 75.279 496.072H125.239C125.569 496.074 125.894 496.147 126.191 496.286C126.489 496.425 126.751 496.626 126.96 496.876C127.169 497.126 127.319 497.418 127.4 497.731C127.481 498.044 127.49 498.371 127.428 498.688L116.791 554Z" fill="#E19974"/>
<path d="M126.659 502.685L127.428 498.688C127.491 498.371 127.481 498.044 127.4 497.731C127.32 497.418 127.169 497.126 126.96 496.876C126.751 496.627 126.489 496.425 126.191 496.286C125.894 496.147 125.569 496.074 125.239 496.072H75.279C74.9494 496.074 74.6243 496.147 74.3269 496.286C74.0294 496.425 73.7668 496.627 73.5579 496.876C73.3489 497.126 73.1986 497.418 73.1178 497.731C73.037 498.044 73.0276 498.371 73.0902 498.688L73.8588 502.685H126.659Z" fill="#D6694B"/>
<path d="M86.3696 538.334L79.386 531.425L86.3696 524.515L93.3551 531.425L86.3696 538.334Z" fill="#D6694B"/>
<path d="M100.339 538.334L93.355 531.425L100.339 524.515L107.324 531.425L100.339 538.334Z" fill="#D6694B"/>
<path d="M114.147 538.334L107.163 531.425L114.147 524.515L121.132 531.425L114.147 538.334Z" fill="#D6694B"/>
<path d="M843.487 11.3486H620.927V461.497H843.487V11.3486Z" fill="#935B50"/>
<path d="M694.471 223.816H654.618V185.874C654.618 180.694 656.718 175.727 660.455 172.064C664.192 168.401 669.26 166.343 674.545 166.343V166.343C677.161 166.343 679.753 166.849 682.17 167.83C684.588 168.812 686.784 170.25 688.635 172.064C690.485 173.877 691.953 176.03 692.954 178.4C693.955 180.77 694.471 183.309 694.471 185.874V223.816Z" fill="#FFBA55"/>
<path d="M675.243 201.424C683.479 201.424 690.156 194.88 690.156 186.807C690.156 178.735 683.479 172.191 675.243 172.191C667.007 172.191 660.33 178.735 660.33 186.807C660.33 194.88 667.007 201.424 675.243 201.424Z" fill="white"/>
<path d="M679.494 175.3C678.476 179.277 677.098 183.127 675.736 186.982L675.517 186.369C679.192 188.628 682.881 190.868 686.348 193.462C682.412 191.62 678.697 189.423 674.969 187.246L674.597 187.028L674.75 186.632C676.222 182.816 677.678 178.994 679.494 175.3Z" fill="#080200"/>
<path d="M690.747 453.471V454.227C690.746 456.155 689.965 458.004 688.574 459.367C687.183 460.73 685.297 461.496 683.331 461.497H661.051C659.084 461.496 657.198 460.73 655.807 459.367C654.417 458.004 653.635 456.155 653.634 454.227V424.801C653.635 422.873 654.417 421.025 655.807 419.661C657.198 418.298 659.084 417.532 661.051 417.532H683.331C685.297 417.532 687.183 418.298 688.574 419.661C689.965 421.025 690.746 422.873 690.747 424.801V453.471V453.471Z" fill="#FFBA55"/>
<path d="M703.029 425.033H690.747V429.395H700.804V449.11H690.747V453.471H703.029C703.321 453.472 703.611 453.416 703.881 453.306C704.151 453.197 704.396 453.036 704.603 452.833C704.81 452.631 704.974 452.39 705.085 452.126C705.197 451.861 705.254 451.577 705.254 451.29V427.214C705.254 426.928 705.197 426.644 705.085 426.379C704.974 426.114 704.81 425.874 704.603 425.671C704.396 425.469 704.151 425.308 703.881 425.199C703.611 425.089 703.321 425.033 703.029 425.033V425.033Z" fill="white"/>
<path d="M679.925 432.583H673.674C672.855 432.583 672.191 433.234 672.191 434.037V440.164C672.191 440.967 672.855 441.618 673.674 441.618H679.925C680.745 441.618 681.409 440.967 681.409 440.164V434.037C681.409 433.234 680.745 432.583 679.925 432.583Z" fill="white"/>
<path d="M677.844 417.53H675.756V432.584H677.844V417.53Z" fill="#E5CAF3"/>
<path d="M609.894 0V554H620.927V540.349H843.487V554H854.52V0H609.894ZM620.927 11.3487H729.067V122.427H620.927V11.3487ZM620.927 131.313H729.067V223.816H620.927V131.313ZM620.927 233.452H729.067V339.445H620.927V233.452ZM620.927 349.08H729.067V461.497H620.927V349.08ZM843.487 531.195H620.927V473.06H843.487V531.195ZM843.487 461.497H735.948V349.08H843.487V461.497ZM843.487 339.445H735.948V233.452H843.487V339.445ZM843.487 223.816H735.948V131.313H843.487V223.816ZM843.487 122.427H735.948V11.3487H843.487V122.427Z" fill="#E19974"/>
<path d="M843.487 470.383H620.927V531.195H843.487V470.383Z" fill="#935B50"/>
<path d="M686.083 498.434H648.234V505.821H686.083V498.434Z" fill="#E19974"/>
<path d="M816.179 498.434H778.33V505.821H816.179V498.434Z" fill="#E19974"/>
<path d="M761.599 111.44H828.745V121.255H761.599C760.421 121.255 759.292 120.796 758.459 119.98C757.626 119.164 757.158 118.056 757.158 116.902V115.793C757.158 114.639 757.626 113.532 758.459 112.715C759.292 111.899 760.421 111.44 761.599 111.44V111.44Z" fill="white"/>
<path d="M830.841 121.506C830.833 121.749 830.727 121.98 830.547 122.146C830.366 122.313 830.125 122.403 829.877 122.396H760.328C757.673 122.396 755.513 119.705 755.513 116.397C755.513 113.09 757.673 110.399 760.328 110.399H829.877C830.125 110.392 830.366 110.482 830.547 110.649C830.727 110.815 830.833 111.045 830.841 111.289V111.989C830.833 112.232 830.727 112.462 830.547 112.629C830.366 112.795 830.125 112.885 829.877 112.878H760.328C759.523 113.069 758.806 113.52 758.294 114.158C757.781 114.796 757.503 115.585 757.503 116.397C757.503 117.21 757.781 117.998 758.294 118.637C758.806 119.275 759.523 119.726 760.328 119.917H829.877C830.125 119.91 830.366 120 830.547 120.166C830.727 120.333 830.833 120.563 830.841 120.806V121.506Z" fill="#F65B2B"/>
<path d="M751.144 99.4443H818.291V109.259H751.144C749.967 109.259 748.837 108.8 748.004 107.984C747.171 107.168 746.703 106.06 746.703 104.906V103.797C746.703 102.643 747.171 101.536 748.004 100.719C748.837 99.9029 749.967 99.4443 751.144 99.4443V99.4443Z" fill="white"/>
<path d="M820.386 109.51C820.378 109.753 820.273 109.983 820.092 110.15C819.911 110.317 819.67 110.407 819.422 110.399H749.873C747.218 110.399 745.058 107.709 745.058 104.401C745.058 101.094 747.218 98.4032 749.873 98.4032H819.422C819.67 98.3961 819.911 98.4857 820.092 98.6524C820.273 98.8191 820.378 99.0493 820.386 99.2924V99.9924C820.378 100.236 820.273 100.466 820.092 100.632C819.911 100.799 819.67 100.889 819.422 100.882H749.873C749.068 101.073 748.351 101.524 747.839 102.162C747.326 102.8 747.048 103.589 747.048 104.401C747.048 105.214 747.326 106.002 747.839 106.641C748.351 107.279 749.068 107.73 749.873 107.921H819.422C819.67 107.914 819.911 108.003 820.092 108.17C820.273 108.337 820.378 108.567 820.386 108.81V109.51Z" fill="#FFBA55"/>
<path d="M772.545 87.4481H839.691V97.2628H772.545C771.367 97.2628 770.238 96.8041 769.405 95.9878C768.572 95.1715 768.104 94.0643 768.104 92.9098V91.8011C768.104 91.2294 768.219 90.6634 768.442 90.1353C768.665 89.6071 768.992 89.1273 769.405 88.7231C769.817 88.3188 770.307 87.9982 770.846 87.7794C771.384 87.5607 771.962 87.4481 772.545 87.4481Z" fill="white"/>
<path d="M841.787 97.514C841.779 97.7571 841.673 97.9873 841.492 98.154C841.312 98.3208 841.071 98.4104 840.823 98.4033H771.274C768.619 98.4033 766.459 95.7126 766.459 92.4047C766.459 89.0977 768.619 86.407 771.274 86.407H840.823C841.071 86.3999 841.312 86.4895 841.492 86.6563C841.673 86.823 841.779 87.0532 841.787 87.2963V87.9962C841.779 88.2394 841.673 88.4696 841.492 88.6363C841.312 88.803 841.071 88.8926 840.823 88.8855H771.274C770.469 89.0765 769.752 89.5274 769.24 90.1658C768.727 90.8041 768.448 91.5928 768.448 92.4051C768.448 93.2174 768.727 94.0061 769.24 94.6445C769.752 95.2828 770.469 95.7337 771.274 95.9247H840.823C841.071 95.9176 841.312 96.0072 841.492 96.1739C841.673 96.3407 841.779 96.5708 841.787 96.814V97.514Z" fill="#F65B2B"/>
<path d="M818.358 338.304H751.212V328.489H818.358C819.536 328.489 820.666 328.948 821.499 329.764C822.332 330.581 822.8 331.688 822.8 332.842V333.951C822.8 335.106 822.332 336.213 821.499 337.029C820.666 337.845 819.536 338.304 818.358 338.304Z" fill="white"/>
<path d="M749.116 338.555C749.124 338.798 749.23 339.029 749.411 339.195C749.591 339.362 749.832 339.452 750.08 339.445H819.629C822.284 339.445 824.445 336.754 824.445 333.446C824.445 330.139 822.284 327.448 819.629 327.448H750.08C749.832 327.441 749.591 327.531 749.411 327.698C749.23 327.864 749.124 328.095 749.116 328.338V329.038C749.124 329.281 749.23 329.511 749.411 329.678C749.591 329.844 749.832 329.934 750.08 329.927H819.629C820.435 330.118 821.151 330.569 821.664 331.207C822.176 331.845 822.455 332.634 822.455 333.447C822.455 334.259 822.176 335.047 821.664 335.686C821.151 336.324 820.435 336.775 819.629 336.966H750.08C749.832 336.959 749.591 337.049 749.411 337.215C749.23 337.382 749.124 337.612 749.116 337.855V338.555Z" fill="#F65B2B"/>
<path d="M828.813 326.308H761.667V316.493H828.813C829.396 316.493 829.974 316.606 830.513 316.825C831.052 317.043 831.541 317.364 831.954 317.768C832.366 318.172 832.693 318.652 832.916 319.18C833.14 319.709 833.254 320.275 833.254 320.846V321.955C833.254 323.109 832.786 324.217 831.954 325.033C831.121 325.849 829.991 326.308 828.813 326.308Z" fill="white"/>
<path d="M759.571 326.559C759.579 326.802 759.685 327.033 759.866 327.199C760.046 327.366 760.287 327.456 760.535 327.449H830.084C832.739 327.449 834.899 324.758 834.899 321.45C834.899 318.143 832.739 315.452 830.084 315.452H760.535C760.287 315.445 760.046 315.535 759.866 315.702C759.685 315.868 759.579 316.098 759.571 316.342V317.042C759.579 317.285 759.685 317.515 759.866 317.682C760.046 317.848 760.287 317.938 760.535 317.931H830.084C830.889 318.122 831.606 318.573 832.119 319.211C832.631 319.849 832.91 320.638 832.91 321.45C832.91 322.263 832.631 323.051 832.119 323.69C831.606 324.328 830.889 324.779 830.084 324.97H760.535C760.287 324.963 760.046 325.053 759.866 325.219C759.685 325.386 759.579 325.616 759.571 325.859V326.559Z" fill="#FFBA55"/>
<path d="M807.413 314.312H740.266V304.497H807.413C808.59 304.497 809.72 304.956 810.553 305.772C811.386 306.588 811.854 307.696 811.854 308.85V309.959C811.854 311.113 811.386 312.22 810.553 313.037C809.72 313.853 808.59 314.312 807.413 314.312Z" fill="white"/>
<path d="M738.171 314.563C738.178 314.806 738.284 315.036 738.465 315.203C738.646 315.37 738.887 315.459 739.135 315.452H808.683C811.339 315.452 813.499 312.762 813.499 309.454C813.499 306.147 811.339 303.456 808.683 303.456H739.135C738.887 303.449 738.646 303.539 738.465 303.705C738.284 303.872 738.178 304.102 738.171 304.345V305.045C738.178 305.289 738.284 305.519 738.465 305.685C738.646 305.852 738.887 305.942 739.135 305.935H808.683C809.489 306.126 810.205 306.577 810.718 307.215C811.23 307.853 811.509 308.642 811.509 309.454C811.509 310.267 811.23 311.055 810.718 311.694C810.205 312.332 809.489 312.783 808.683 312.974H739.135C738.887 312.967 738.646 313.056 738.465 313.223C738.284 313.39 738.178 313.62 738.171 313.863V314.563Z" fill="#F65B2B"/>
<path d="M728.038 47.9101L717.678 122.425L705.724 120.828L716.084 46.3136C716.106 46.1536 716.16 45.9995 716.243 45.8601C716.326 45.7207 716.436 45.5987 716.568 45.501C716.699 45.4033 716.848 45.3319 717.007 45.2909C717.167 45.2498 717.333 45.2399 717.496 45.2617L726.965 46.5263C727.294 46.5704 727.592 46.7409 727.794 47.0004C727.995 47.2599 728.083 47.5872 728.038 47.9101Z" fill="#7CA1B1"/>
<path d="M715.545 50.1626L715.349 51.5779L727.302 53.1749L727.499 51.7596L715.545 50.1626Z" fill="white"/>
<path d="M714.759 55.8242L714.562 57.2394L726.516 58.8365L726.713 57.4212L714.759 55.8242Z" fill="white"/>
<path d="M707.677 106.766L707.48 108.181L719.434 109.778L719.631 108.363L707.677 106.766Z" fill="white"/>
<path d="M706.89 112.425L706.694 113.84L718.646 115.437L718.843 114.022L706.89 112.425Z" fill="white"/>
<path d="M689.483 47.2232V122.427H677.419V47.2232C677.419 47.0618 677.451 46.9019 677.514 46.7528C677.577 46.6037 677.67 46.4682 677.786 46.3541C677.902 46.24 678.041 46.1494 678.193 46.0877C678.345 46.0259 678.508 45.9941 678.673 45.9941H688.229C688.394 45.9941 688.557 46.0259 688.709 46.0877C688.861 46.1494 688.999 46.24 689.116 46.3541C689.232 46.4682 689.325 46.6037 689.388 46.7529C689.451 46.902 689.483 47.0618 689.483 47.2232Z" fill="#F65B2B"/>
<path d="M689.484 115.886H677.419V117.312H689.484V115.886Z" fill="white"/>
<path d="M689.484 110.173H677.419V111.599H689.484V110.173Z" fill="white"/>
<path d="M689.484 58.762H677.419V60.188H689.484V58.762Z" fill="white"/>
<path d="M689.484 53.049H677.419V54.4749H689.484V53.049Z" fill="white"/>
<path d="M689.468 122.427V50.6507C689.468 50.3247 689.6 50.0121 689.836 49.7816C690.071 49.5511 690.39 49.4216 690.722 49.4216H704.475C704.64 49.4216 704.803 49.4534 704.955 49.5151C705.107 49.5769 705.245 49.6675 705.362 49.7816C705.478 49.8957 705.57 50.0312 705.633 50.1803C705.696 50.3294 705.729 50.4893 705.729 50.6507V122.427H689.468Z" fill="#FFBA55"/>
<path d="M705.729 113.445H689.468V114.871H705.729V113.445Z" fill="white"/>
<path d="M702.844 87.6381V53.5346H692.353V87.6381H702.844Z" fill="white"/>
<path d="M649.116 47.2232V122.427H661.18V47.2232C661.18 46.8972 661.048 46.5846 660.813 46.3541C660.578 46.1236 660.259 45.9941 659.926 45.9941H650.37C650.205 45.9941 650.042 46.0259 649.89 46.0877C649.738 46.1494 649.599 46.24 649.483 46.3541C649.367 46.4682 649.274 46.6037 649.211 46.7528C649.148 46.9019 649.116 47.0618 649.116 47.2232V47.2232Z" fill="#FFBA55"/>
<path d="M661.181 115.886H649.115V117.312H661.181V115.886Z" fill="white"/>
<path d="M661.181 110.173H649.115V111.599H661.181V110.173Z" fill="white"/>
<path d="M661.181 58.762H649.115V60.188H661.181V58.762Z" fill="white"/>
<path d="M661.181 53.049H649.115V54.4749H661.181V53.049Z" fill="white"/>
<path d="M649.13 122.427V50.6507C649.13 50.4893 649.098 50.3294 649.035 50.1803C648.972 50.0312 648.88 49.8957 648.763 49.7816C648.647 49.6675 648.509 49.5769 648.356 49.5151C648.204 49.4534 648.041 49.4216 647.876 49.4216H634.124C633.959 49.4216 633.796 49.4534 633.644 49.5151C633.492 49.5769 633.354 49.6675 633.237 49.7816C633.121 49.8957 633.028 50.0312 632.965 50.1803C632.902 50.3294 632.87 50.4893 632.87 50.6507V122.427H649.13Z" fill="#F65B2B"/>
<path d="M649.131 113.445H632.87V114.871H649.131V113.445Z" fill="white"/>
<path d="M646.246 87.6381V53.5346H635.755V87.6381H646.246Z" fill="white"/>
<path d="M677.43 50.6506V122.427H661.169V50.6506C661.169 50.3247 661.301 50.0121 661.536 49.7816C661.772 49.5511 662.09 49.4216 662.423 49.4216H676.176C676.508 49.4216 676.827 49.5511 677.062 49.7816C677.298 50.0121 677.43 50.3247 677.43 50.6506Z" fill="#7CA1B1"/>
<path d="M677.429 113.445H661.168V114.871H677.429V113.445Z" fill="white"/>
<path d="M674.544 87.6381V53.5346H664.054V87.6381H674.544Z" fill="white"/>
<path d="M744.312 250.2L751.554 302.286L743.198 303.402L735.957 251.316C735.925 251.091 735.987 250.862 736.127 250.681C736.268 250.499 736.476 250.38 736.707 250.349L743.325 249.465C743.556 249.434 743.789 249.495 743.974 249.632C744.159 249.77 744.281 249.975 744.312 250.2Z" fill="#7CA1B1"/>
<path d="M736.469 254.997L736.33 254.008L744.685 252.891L744.824 253.879L736.469 254.997Z" fill="white"/>
<path d="M737.019 258.951L736.88 257.963L745.236 256.847L745.374 257.835L737.019 258.951Z" fill="white"/>
<path d="M741.968 294.56L741.829 293.572L750.187 292.455L750.324 293.443L741.968 294.56Z" fill="white"/>
<path d="M742.519 298.516L742.38 297.528L750.736 296.413L750.875 297.401L742.519 298.516Z" fill="white"/>
<path d="M762.904 250.835V303.402H771.337V250.835C771.337 250.607 771.245 250.389 771.081 250.228C770.916 250.067 770.693 249.976 770.461 249.976H763.781C763.548 249.976 763.325 250.067 763.161 250.228C762.997 250.389 762.904 250.607 762.904 250.835V250.835Z" fill="#F65B2B"/>
<path d="M771.337 298.83H762.904V299.827H771.337V298.83Z" fill="white"/>
<path d="M771.337 294.837H762.904V295.834H771.337V294.837Z" fill="white"/>
<path d="M771.337 258.901H762.904V259.897H771.337V258.901Z" fill="white"/>
<path d="M771.337 254.907H762.904V255.904H771.337V254.907Z" fill="white"/>
<path d="M762.914 303.402V253.231C762.914 253.003 762.822 252.784 762.658 252.623C762.493 252.462 762.27 252.372 762.038 252.372H752.425C752.192 252.372 751.969 252.462 751.805 252.623C751.641 252.784 751.548 253.003 751.548 253.231V303.402H762.914Z" fill="#FFBA55"/>
<path d="M762.915 297.124H751.549V298.12H762.915V297.124Z" fill="white"/>
<path d="M760.898 279.085V255.247H753.565V279.085H760.898Z" fill="white"/>
<path d="M791.12 250.835V303.402H782.688V250.835C782.688 250.607 782.78 250.389 782.944 250.228C783.109 250.067 783.332 249.976 783.564 249.976H790.244C790.477 249.976 790.699 250.067 790.864 250.228C791.028 250.389 791.12 250.607 791.12 250.835V250.835Z" fill="#FFBA55"/>
<path d="M791.121 298.83H782.687V299.827H791.121V298.83Z" fill="white"/>
<path d="M791.121 294.837H782.687V295.834H791.121V294.837Z" fill="white"/>
<path d="M791.121 258.901H782.687V259.897H791.121V258.901Z" fill="white"/>
<path d="M791.121 254.907H782.687V255.904H791.121V254.907Z" fill="white"/>
<path d="M791.11 303.402V253.231C791.11 253.003 791.203 252.784 791.367 252.623C791.531 252.462 791.754 252.372 791.987 252.372H801.6C801.832 252.372 802.055 252.462 802.22 252.623C802.384 252.784 802.476 253.003 802.476 253.231V303.402H791.11Z" fill="#F65B2B"/>
<path d="M802.476 297.124H791.11V298.12H802.476V297.124Z" fill="white"/>
<path d="M800.46 279.085V255.247H793.127V279.085H800.46Z" fill="white"/>
<path d="M782.696 253.231V303.402H771.329V253.231C771.329 253.003 771.422 252.784 771.586 252.623C771.751 252.462 771.974 252.372 772.206 252.372H781.819C782.052 252.372 782.274 252.462 782.439 252.623C782.603 252.784 782.696 253.003 782.696 253.231Z" fill="#7CA1B1"/>
<path d="M782.696 297.123H771.329V298.121H782.696V297.123Z" fill="white"/>
<path d="M780.679 279.085V255.247H773.346V279.085H780.679Z" fill="white"/>
<path d="M687.815 264.241V339.445H675.75V264.241C675.75 263.915 675.882 263.602 676.118 263.372C676.353 263.141 676.672 263.012 677.004 263.012H686.561C686.725 263.012 686.888 263.043 687.04 263.105C687.193 263.167 687.331 263.258 687.447 263.372C687.564 263.486 687.656 263.621 687.719 263.77C687.782 263.92 687.815 264.079 687.815 264.241V264.241Z" fill="#F65B2B"/>
<path d="M687.815 332.904H675.751V334.33H687.815V332.904Z" fill="white"/>
<path d="M687.815 327.191H675.751V328.617H687.815V327.191Z" fill="white"/>
<path d="M687.815 275.78H675.751V277.206H687.815V275.78Z" fill="white"/>
<path d="M687.815 270.066H675.751V271.492H687.815V270.066Z" fill="white"/>
<path d="M687.8 339.444V267.668C687.8 267.507 687.832 267.347 687.895 267.198C687.958 267.049 688.051 266.913 688.167 266.799C688.284 266.685 688.422 266.594 688.574 266.533C688.726 266.471 688.889 266.439 689.054 266.439H702.806C703.139 266.439 703.458 266.569 703.693 266.799C703.928 267.03 704.06 267.342 704.06 267.668V339.444H687.8Z" fill="#FFBA55"/>
<path d="M704.06 330.462H687.8V331.888H704.06V330.462Z" fill="white"/>
<path d="M701.176 304.656V270.552H690.685V304.656H701.176Z" fill="white"/>
<path d="M647.447 264.241V339.445H659.512V264.241C659.512 263.915 659.38 263.602 659.144 263.372C658.909 263.141 658.59 263.012 658.258 263.012H648.701C648.369 263.012 648.05 263.141 647.815 263.372C647.579 263.602 647.447 263.915 647.447 264.241V264.241Z" fill="#FFBA55"/>
<path d="M659.512 332.904H647.447V334.33H659.512V332.904Z" fill="white"/>
<path d="M659.512 327.191H647.447V328.617H659.512V327.191Z" fill="white"/>
<path d="M659.512 275.78H647.447V277.206H659.512V275.78Z" fill="white"/>
<path d="M659.512 270.066H647.447V271.492H659.512V270.066Z" fill="white"/>
<path d="M647.462 339.444V267.668C647.462 267.342 647.329 267.03 647.094 266.799C646.859 266.569 646.54 266.439 646.208 266.439H632.455C632.29 266.439 632.127 266.471 631.975 266.533C631.823 266.594 631.685 266.685 631.568 266.799C631.452 266.913 631.359 267.049 631.296 267.198C631.233 267.347 631.201 267.507 631.201 267.668V339.444H647.462Z" fill="#F65B2B"/>
<path d="M647.462 330.462H631.201V331.888H647.462V330.462Z" fill="white"/>
<path d="M644.577 304.655V270.552H634.086V304.655H644.577Z" fill="white"/>
<path d="M675.761 267.668V339.445H659.501V267.668C659.501 267.342 659.633 267.03 659.868 266.799C660.103 266.569 660.422 266.439 660.755 266.439H674.507C674.84 266.439 675.159 266.569 675.394 266.799C675.629 267.03 675.761 267.342 675.761 267.668V267.668Z" fill="#7CA1B1"/>
<path d="M675.761 330.462H659.501V331.889H675.761V330.462Z" fill="white"/>
<path d="M672.876 304.656V270.552H662.385V304.656H672.876Z" fill="white"/>
<path d="M720.321 267.668V339.444H704.06V267.668C704.06 267.342 704.192 267.03 704.427 266.799C704.663 266.569 704.982 266.439 705.314 266.439H719.067C719.399 266.439 719.718 266.569 719.954 266.799C720.189 267.03 720.321 267.342 720.321 267.668Z" fill="#7CA1B1"/>
<path d="M720.32 330.462H704.061V331.889H720.32V330.462Z" fill="white"/>
<path d="M717.436 304.656V270.552H706.945V304.656H717.436Z" fill="white"/>
<path d="M801.452 386.293V461.497H789.387V386.293C789.387 385.967 789.519 385.654 789.754 385.424C789.99 385.193 790.309 385.064 790.641 385.064H800.198C800.53 385.064 800.849 385.193 801.084 385.424C801.319 385.654 801.452 385.967 801.452 386.293Z" fill="#F65B2B"/>
<path d="M801.452 454.956H789.388V456.382H801.452V454.956Z" fill="white"/>
<path d="M801.452 449.243H789.388V450.669H801.452V449.243Z" fill="white"/>
<path d="M801.452 397.832H789.388V399.258H801.452V397.832Z" fill="white"/>
<path d="M801.452 392.119H789.388V393.545H801.452V392.119Z" fill="white"/>
<path d="M801.437 461.497V389.721C801.437 389.395 801.569 389.082 801.804 388.851C802.039 388.621 802.358 388.491 802.691 388.491H816.444C816.776 388.491 817.095 388.621 817.33 388.851C817.566 389.082 817.698 389.395 817.698 389.721V461.497H801.437Z" fill="#FFBA55"/>
<path d="M817.697 452.515H801.437V453.941H817.697V452.515Z" fill="white"/>
<path d="M814.813 426.708V392.605H804.322V426.708H814.813Z" fill="white"/>
<path d="M761.084 386.293V461.497H773.149V386.293C773.149 385.967 773.016 385.654 772.781 385.424C772.546 385.193 772.227 385.064 771.895 385.064H762.338C762.174 385.064 762.01 385.096 761.858 385.157C761.706 385.219 761.568 385.31 761.452 385.424C761.335 385.538 761.243 385.673 761.18 385.823C761.117 385.972 761.084 386.132 761.084 386.293Z" fill="#FFBA55"/>
<path d="M773.149 454.956H761.083V456.382H773.149V454.956Z" fill="white"/>
<path d="M773.149 449.243H761.083V450.669H773.149V449.243Z" fill="white"/>
<path d="M773.149 397.832H761.083V399.258H773.149V397.832Z" fill="white"/>
<path d="M773.149 392.119H761.083V393.545H773.149V392.119Z" fill="white"/>
<path d="M789.398 389.721V461.497H773.138V389.721C773.138 389.395 773.27 389.082 773.505 388.851C773.74 388.621 774.059 388.491 774.392 388.491H788.144C788.477 388.491 788.796 388.621 789.031 388.851C789.266 389.082 789.398 389.395 789.398 389.721V389.721Z" fill="#7CA1B1"/>
<path d="M789.399 452.514H773.138V453.942H789.399V452.514Z" fill="white"/>
<path d="M786.513 426.708V392.604H776.022V426.708H786.513Z" fill="white"/>
<path d="M813.717 45.8787C813.465 45.5817 813.151 45.3408 812.797 45.1719C812.442 45.003 812.055 44.9099 811.661 44.8988C810.618 45.0367 810.668 46.3854 808.834 48.0906C807.34 49.4809 804.452 51.239 802.137 50.4996C800.208 49.8831 800.477 48.106 798.205 46.5249C796.903 45.6566 795.402 45.1193 793.836 44.9612C795.858 52.9334 799.601 58.3043 803.897 58.3043C808.026 58.3043 811.646 53.3425 813.717 45.8787Z" fill="#FFBA55"/>
<path d="M802.69 69.1086C800.852 69.1936 799.869 71.1161 796.3 76.9378C794.546 79.7974 793.244 81.846 792.276 83.3653C792.26 83.9318 792.238 84.4945 792.238 85.0702H815.557C815.557 84.5017 815.535 83.9462 815.52 83.3868C814.191 81.7355 812.183 79.2615 809.203 75.3718C805.694 70.7896 804.5 69.025 802.69 69.1086Z" fill="#FFBA55"/>
<path d="M803.897 59.6415C796.594 59.6415 790.873 47.2492 790.873 31.4276V30.0893H816.922V31.4276C816.922 47.2492 811.2 59.6415 803.897 59.6415ZM793.617 32.7659C793.917 47.2989 799.073 56.9649 803.897 56.9649C808.721 56.9649 813.878 47.2989 814.178 32.7659H793.617Z" fill="white"/>
<path d="M816.922 86.4074H790.873V85.0691C790.873 69.2475 796.594 56.8552 803.897 56.8552C811.2 56.8552 816.922 69.2475 816.922 85.0691V86.4074ZM793.617 83.7308H814.178C813.878 69.1978 808.722 59.5318 803.897 59.5318C799.073 59.5318 793.917 69.1979 793.617 83.7309V83.7308Z" fill="white"/>
<path d="M824.884 83.7305H820.788V32.7656H824.884C825.064 32.7662 825.242 32.7321 825.408 32.6651C825.574 32.5982 825.725 32.4997 825.853 32.3754C825.98 32.251 826.081 32.1033 826.15 31.9406C826.219 31.7779 826.254 31.6035 826.254 31.4273C826.254 31.2511 826.219 31.0767 826.15 30.914C826.081 30.7513 825.98 30.6036 825.853 30.4792C825.725 30.3549 825.574 30.2565 825.408 30.1895C825.242 30.1225 825.064 30.0884 824.884 30.089H782.911C782.731 30.0884 782.553 30.1225 782.387 30.1895C782.221 30.2565 782.07 30.3549 781.942 30.4792C781.815 30.6036 781.714 30.7513 781.645 30.914C781.576 31.0767 781.541 31.2511 781.541 31.4273C781.541 31.6035 781.576 31.7779 781.645 31.9406C781.714 32.1033 781.815 32.251 781.942 32.3754C782.07 32.4997 782.221 32.5982 782.387 32.6651C782.553 32.7321 782.731 32.7662 782.911 32.7656H787.007V83.7305H782.911C782.549 83.7305 782.202 83.8715 781.946 84.1225C781.69 84.3735 781.546 84.7139 781.546 85.0688C781.546 85.4238 781.69 85.7642 781.946 86.0151C782.202 86.2661 782.549 86.4071 782.911 86.4071H824.884C825.246 86.4071 825.593 86.2661 825.849 86.0151C826.106 85.7642 826.249 85.4238 826.249 85.0688C826.249 84.7139 826.106 84.3735 825.849 84.1225C825.593 83.8715 825.246 83.7305 824.884 83.7305V83.7305ZM789.738 32.7656H818.057V83.7305H789.738V32.7656Z" fill="#7CA1B1"/>
<path d="M782.207 204.304C782.111 202.185 782.171 200.1 782.236 198.016L783.617 192.027L786.36 180.042L789.102 168.057L790.474 162.065C791.379 160.167 792.18 158.245 793.177 156.366C793.26 158.482 793.147 160.555 793.138 162.651L791.767 168.643L789.024 180.628L786.282 192.612L784.922 198.607C784.073 200.518 783.219 202.428 782.207 204.304Z" fill="#FCFCFC"/>
<path d="M788.36 210.026C786.791 201.974 785.298 193.912 783.88 185.839C783.145 181.806 782.255 177.795 781.843 173.717C781.383 169.624 781.199 165.505 781.293 161.388L781.563 161.35C782.827 165.278 783.823 169.283 784.547 173.34C785.313 177.368 785.6 181.464 786.043 185.537C786.98 193.677 787.842 201.827 788.63 209.988L788.36 210.026Z" fill="#F65B2B"/>
<path d="M800.33 163.295C800.083 165.402 799.688 167.451 799.286 169.498L796.954 175.198L792.309 186.606L787.665 198.013L785.343 203.717C784.142 205.451 783.041 207.224 781.752 208.924C782.012 206.822 782.46 204.793 782.806 202.725L785.129 197.021L789.773 185.614L794.417 174.206L796.73 168.499C797.876 166.743 799.029 164.99 800.33 163.295Z" fill="#FFBA55"/>
<path d="M777.856 163.103L766.973 165.576L775.995 203.709L786.877 201.236L777.856 163.103Z" fill="#FFBA55"/>
<path d="M799.182 216.209V216.925C799.272 218.658 798.658 220.355 797.476 221.646C796.293 222.937 794.638 223.717 792.871 223.816H773.912C772.145 223.717 770.489 222.937 769.307 221.646C768.124 220.355 767.511 218.658 767.6 216.925V189.032C767.511 187.299 768.124 185.603 769.307 184.312C770.489 183.021 772.145 182.241 773.912 182.142H792.871C794.638 182.241 796.294 183.021 797.476 184.312C798.658 185.603 799.272 187.299 799.182 189.032V216.209V216.209Z" fill="#7CA1B1"/>
<path d="M799.182 192.729H767.601V195.405H799.182V192.729Z" fill="#FCFCFC"/>
<path d="M799.182 198.082H767.601V200.758H799.182V198.082Z" fill="#FCFCFC"/>
<path d="M546.826 293.161C546.573 292.864 546.26 292.623 545.905 292.454C545.55 292.285 545.163 292.192 544.769 292.181C543.726 292.319 543.776 293.667 541.943 295.373C540.448 296.763 537.56 298.521 535.246 297.782C533.316 297.165 533.585 295.388 531.313 293.807C530.012 292.939 528.51 292.401 526.944 292.243C528.967 300.215 532.71 305.586 537.006 305.586C541.135 305.586 544.754 300.624 546.826 293.161Z" fill="#FFBA55"/>
<path d="M535.799 316.391C533.96 316.476 532.977 318.398 529.408 324.22C527.655 327.079 526.352 329.128 525.384 330.647C525.368 331.214 525.347 331.776 525.347 332.352H548.665C548.665 331.784 548.643 331.228 548.629 330.669C547.3 329.017 545.291 326.543 542.312 322.654C538.802 318.072 537.609 316.307 535.799 316.391Z" fill="#FFBA55"/>
<path d="M537.006 306.924C529.703 306.924 523.981 294.531 523.981 278.71V277.371H550.03V278.71C550.03 294.531 544.309 306.924 537.006 306.924ZM526.725 280.048C527.025 294.581 532.181 304.247 537.006 304.247C541.83 304.247 546.986 294.581 547.286 280.048H526.725Z" fill="white"/>
<path d="M550.03 333.689H523.981V332.351C523.981 316.529 529.703 304.137 537.006 304.137C544.309 304.137 550.03 316.529 550.03 332.351V333.689ZM526.725 331.013H547.286C546.986 316.48 541.83 306.814 537.006 306.814C532.181 306.814 527.025 316.48 526.725 331.013Z" fill="white"/>
<path d="M557.992 331.013H553.896V280.048H557.992C558.354 280.048 558.702 279.907 558.958 279.656C559.214 279.405 559.358 279.064 559.358 278.709C559.358 278.355 559.214 278.014 558.958 277.763C558.702 277.512 558.354 277.371 557.992 277.371H516.019C515.657 277.371 515.31 277.512 515.054 277.763C514.798 278.014 514.654 278.355 514.654 278.709C514.654 279.064 514.798 279.405 515.054 279.656C515.31 279.907 515.657 280.048 516.019 280.048H520.116V331.013H516.019C515.657 331.013 515.31 331.154 515.054 331.405C514.798 331.656 514.654 331.996 514.654 332.351C514.654 332.706 514.798 333.046 515.054 333.297C515.31 333.548 515.657 333.689 516.019 333.689H557.992C558.354 333.689 558.702 333.548 558.958 333.297C559.214 333.046 559.358 332.706 559.358 332.351C559.358 331.996 559.214 331.656 558.958 331.405C558.702 331.154 558.354 331.013 557.992 331.013V331.013ZM522.847 280.048H551.165V331.013H522.847V280.048Z" fill="#7CA1B1"/>
<path d="M412.134 200.583H249.869C247.848 200.583 246.21 202.188 246.21 204.169V280.121C246.21 282.102 247.848 283.707 249.869 283.707H412.134C414.155 283.707 415.793 282.102 415.793 280.121V204.169C415.793 202.188 414.155 200.583 412.134 200.583Z" fill="#E5E1E5"/>
<path d="M415.793 200.583H379.772V283.707H415.793V200.583Z" fill="#A5A5A5"/>
<path d="M369.062 266.523H263.645V271.518H369.062V266.523Z" fill="#A5A5A5"/>
<path d="M369.062 243.218H263.645V248.214H369.062V243.218Z" fill="#A5A5A5"/>
<path d="M369.062 221.932H263.645V226.927H369.062V221.932Z" fill="#A5A5A5"/>
<path d="M334.115 302.436H331.134V327.784H334.115V302.436Z" fill="#E5E1E5"/>
<path d="M381.086 333.584H284.164V320.482L332.625 313.178L381.086 320.482V333.584Z" fill="#E5E1E5"/>
<path d="M263.954 224.552L260.694 220.185H256.676V210.731H271.545V220.185H264.847L263.954 224.552Z" fill="#FFBA55"/>
<path d="M263.954 245.845L260.694 241.479H256.676V232.024H271.545V241.479H264.847L263.954 245.845Z" fill="#FFBA55"/>
<path d="M263.954 269.02L260.694 264.653H256.676V255.199H271.545V264.653H264.847L263.954 269.02Z" fill="#FFBA55"/>
<path d="M350.556 307.177C350.556 307.177 309.289 279.734 308.67 279.994C308.051 280.253 303.965 282.392 324.473 297.377C324.473 297.377 319.115 300.45 323.123 311.453C323.769 313.214 324.817 314.806 326.187 316.109C327.556 317.413 329.211 318.392 331.025 318.974C335.532 320.425 341.655 321.901 344.435 320.349L350.556 307.177Z" fill="#F9977A"/>
<path d="M302.231 501.393L295.968 519.526C295.968 519.526 272.748 537.919 242.856 543.055C242.856 543.055 233.744 547.246 233.8 553.745L323.972 553.007L323.685 519.3L326.32 501.981L302.231 501.393Z" fill="#F9977A"/>
<path d="M235.237 549.333L322.962 548.615C323.256 548.612 323.548 548.667 323.821 548.775C324.093 548.883 324.342 549.043 324.552 549.245C324.761 549.447 324.929 549.688 325.044 549.954C325.158 550.219 325.219 550.504 325.221 550.793V550.8C325.224 551.089 325.168 551.375 325.058 551.642C324.948 551.91 324.785 552.153 324.578 552.359C324.372 552.564 324.126 552.728 323.855 552.841C323.584 552.953 323.293 553.012 322.999 553.015L232.561 553.755C232.561 553.755 229.956 551.109 235.237 549.333Z" fill="#D6694B"/>
<path d="M261.28 550.22C261.28 550.22 262.094 545.679 257.435 539.44C258.437 538.393 259.675 537.589 261.051 537.094C262.426 536.599 263.9 536.425 265.356 536.588C266.426 538.316 267.301 540.153 267.964 542.067C269.103 545.116 269.913 548.784 268.595 551.26L261.28 550.22Z" fill="#D6694B"/>
<path d="M283.079 527.982C283.079 527.982 290.655 539.537 286.179 550.136L294.763 550.065C294.763 550.065 299.404 533.34 290.081 523.68C290.081 523.68 284.334 523.874 283.079 527.982Z" fill="#D6694B"/>
<path d="M283.417 442.54L276.918 460.594C276.918 460.594 253.461 478.696 223.505 483.457C223.505 483.457 214.339 487.534 214.31 494.033L304.484 494.421L304.636 460.713L307.496 443.429L283.417 442.54Z" fill="#F9977A"/>
<path d="M215.805 489.639L303.532 490.017C303.826 490.018 304.117 490.076 304.389 490.188C304.66 490.299 304.906 490.462 305.114 490.667C305.321 490.872 305.485 491.115 305.596 491.382C305.708 491.649 305.764 491.934 305.763 492.223V492.23C305.76 492.813 305.522 493.371 305.1 493.781C304.677 494.191 304.107 494.42 303.512 494.417L213.072 494.028C213.072 494.028 210.502 491.349 215.805 489.639Z" fill="#D6694B"/>
<path d="M241.835 490.852C241.835 490.852 242.707 486.321 238.129 480.025C239.145 478.99 240.394 478.202 241.776 477.724C243.157 477.246 244.634 477.091 246.088 477.272C247.135 479.013 247.985 480.861 248.624 482.783C249.723 485.846 250.485 489.524 249.135 491.983L241.835 490.852Z" fill="#D6694B"/>
<path d="M263.921 468.888C263.921 468.888 271.346 480.537 266.733 491.078L275.316 491.115C275.316 491.115 280.175 474.45 270.978 464.674C270.978 464.674 265.229 464.796 263.921 468.888Z" fill="#D6694B"/>
<path d="M391.802 369.745L332.273 349.442C324.848 346.908 316.705 347.33 309.594 350.617C302.483 353.904 296.972 359.795 294.245 367.023C283.729 394.534 275.7 422.898 270.249 451.788C270.096 452.661 270.276 453.559 270.757 454.31C271.237 455.061 271.983 455.612 272.852 455.857L291.642 461.159L293.5 507.907C293.537 508.833 293.938 509.709 294.62 510.352C295.302 510.995 296.211 511.354 297.157 511.354H324.106C324.976 511.354 325.817 511.05 326.479 510.497C327.141 509.944 327.581 509.178 327.719 508.336L340.526 430.194L370.122 432.802C370.122 432.802 525.42 463.766 500.812 352.294L434.303 355.56L426.54 362.615C421.956 366.782 416.3 369.647 410.18 370.903C404.061 372.159 397.707 371.759 391.802 369.745Z" fill="#6C7FD8"/>
<path d="M404.368 436.538C388.474 429.012 372.47 421.723 356.472 414.423L332.404 403.625C324.39 400.006 316.354 396.437 308.294 392.918L308.408 392.979C307.593 392.524 306.69 392.242 305.758 392.152C304.825 392.063 303.883 392.167 302.995 392.458C301.32 393.062 299.855 394.121 298.773 395.512C296.794 398.153 295.328 401.129 294.451 404.291C292.734 410.453 291.69 416.776 291.336 423.154C290.547 435.814 290.649 448.512 291.642 461.159C291.567 454.827 291.431 448.5 291.589 442.176C291.743 435.856 291.958 429.537 292.584 423.258C293.102 416.996 294.236 410.797 295.968 404.748C296.809 401.793 298.194 399.012 300.054 396.544C300.943 395.404 302.144 394.535 303.517 394.037C304.166 393.831 304.851 393.757 305.53 393.82C306.209 393.882 306.867 394.079 307.466 394.399L307.552 394.448L307.58 394.461C315.596 398.076 323.631 401.648 331.686 405.178L355.833 415.805C371.978 422.788 388.118 429.782 404.368 436.538Z" fill="#065082"/>
<path d="M272.278 441.328C275.179 443.042 278.25 444.462 281.444 445.567C284.61 446.746 287.892 447.602 291.237 448.122C288.338 446.405 285.267 444.984 282.071 443.883C278.904 442.708 275.623 441.852 272.278 441.328V441.328Z" fill="#065082"/>
<path d="M329.357 498.338C323.34 497.702 317.291 497.403 311.239 497.442C305.187 497.399 299.137 497.698 293.12 498.338C299.137 498.978 305.187 499.277 311.239 499.234C317.291 499.273 323.34 498.973 329.357 498.338V498.338Z" fill="#065082"/>
<path d="M340.526 430.194C341.857 428.943 342.94 427.46 343.717 425.82C344.559 424.211 345.084 422.461 345.265 420.661C343.93 421.91 342.847 423.394 342.073 425.035C341.235 426.646 340.71 428.395 340.526 430.194V430.194Z" fill="#065082"/>
<path d="M564.947 343.85H551.431V554H564.947V343.85Z" fill="#935B50"/>
<path d="M588.495 333.689H186.961C185.674 333.689 184.631 334.712 184.631 335.974V341.566C184.631 342.828 185.674 343.85 186.961 343.85H588.495C589.782 343.85 590.826 342.828 590.826 341.566V335.974C590.826 334.712 589.782 333.689 588.495 333.689Z" fill="#935B50"/>
<path d="M225.104 343.85H211.587V554H225.104V343.85Z" fill="#935B50"/>
<path d="M200.805 343.85H575.576V372.517C575.576 373.729 575.085 374.89 574.211 375.747C573.337 376.604 572.151 377.085 570.915 377.085H205.465C204.229 377.085 203.044 376.604 202.17 375.747C201.296 374.89 200.805 373.729 200.805 372.517V343.85H200.805Z" fill="#C38F86"/>
<path d="M469.553 253.208L471.33 190.318L423.419 192.894L425.52 230.44C425.63 232.396 426.132 234.313 426.997 236.08C427.862 237.846 429.074 239.429 430.563 240.736C432.052 242.044 433.789 243.052 435.676 243.701C437.562 244.351 439.56 244.63 441.557 244.523L442.649 244.464L443.006 255.199L469.553 253.208Z" fill="#F9977A"/>
<path d="M442.473 244.464L450.134 244.052L442.83 255.199L442.473 244.464Z" fill="#DD765E"/>
<path d="M426.54 362.615C431.495 358.112 431.953 351.885 432.008 345.263L434.463 336.54C425.992 355.466 405.414 351.592 405.414 351.592C395.106 351.266 340.829 321.007 340.829 321.007L346.692 304.612L402.379 317.826C402.379 317.826 412.106 300.959 421.833 282.136C431.56 263.312 443.006 255.2 443.006 255.2L472.69 250.833C525.897 255.396 500.812 352.295 500.812 352.295C525.42 463.766 370.122 432.802 370.122 432.802C366.901 423.585 365.889 413.764 367.165 404.102C368.441 394.439 371.97 385.195 377.479 377.085C385.932 377.085 398.033 377.942 411.299 372.739C417.081 370.511 422.287 367.053 426.54 362.615V362.615Z" fill="#F73C4F"/>
<path d="M494.146 430.432H484.998V553.205H494.146V430.432Z" fill="#C38F86"/>
<path d="M404.495 430.432H395.346V553.205H404.495V430.432Z" fill="#C38F86"/>
<path d="M402.379 317.826C402.174 318.833 402.258 319.876 402.621 320.839C402.953 321.814 403.558 322.677 404.367 323.33C404.713 322.327 404.705 321.239 404.344 320.241C403.984 319.243 403.292 318.392 402.379 317.826V317.826Z" fill="#B02336"/>
<path d="M430.313 343.82C433.335 339.82 436.078 335.624 438.52 331.26C441.035 326.936 443.244 322.447 445.132 317.826C442.106 321.824 439.363 326.02 436.924 330.386C434.413 334.712 432.204 339.2 430.313 343.82V343.82Z" fill="#B02336"/>
<path d="M210.433 324.455H266.481V332.647H210.433C209.45 332.647 208.507 332.265 207.812 331.583C207.117 330.902 206.726 329.978 206.726 329.014V328.089C206.726 327.611 206.822 327.139 207.008 326.698C207.195 326.257 207.468 325.857 207.812 325.519C208.156 325.182 208.565 324.914 209.015 324.732C209.464 324.549 209.946 324.455 210.433 324.455V324.455Z" fill="white"/>
<path d="M268.23 332.857C268.224 333.06 268.136 333.252 267.985 333.391C267.834 333.531 267.633 333.605 267.426 333.599H209.373C208.227 333.328 207.207 332.686 206.478 331.778C205.749 330.87 205.353 329.748 205.353 328.593C205.353 327.437 205.749 326.315 206.478 325.407C207.207 324.499 208.227 323.858 209.373 323.586H267.426C267.633 323.58 267.834 323.655 267.985 323.794C268.136 323.933 268.224 324.125 268.23 324.328V324.913C268.224 325.116 268.136 325.308 267.985 325.447C267.834 325.586 267.633 325.661 267.426 325.655H209.373C208.7 325.814 208.102 326.191 207.674 326.724C207.246 327.256 207.014 327.915 207.014 328.593C207.014 329.271 207.246 329.929 207.674 330.462C208.102 330.995 208.7 331.371 209.373 331.531H267.426C267.633 331.525 267.834 331.599 267.985 331.739C268.136 331.878 268.224 332.07 268.23 332.273V332.857Z" fill="#F65B2B"/>
<path d="M201.706 314.442H257.754V322.634H201.706C200.723 322.634 199.78 322.251 199.085 321.57C198.39 320.888 197.999 319.964 197.999 319.001V318.075C197.999 317.111 198.39 316.187 199.085 315.506C199.78 314.824 200.723 314.442 201.706 314.442V314.442Z" fill="white"/>
<path d="M259.504 322.844C259.497 323.047 259.409 323.239 259.258 323.378C259.107 323.517 258.906 323.592 258.699 323.586H200.646C199.5 323.314 198.481 322.673 197.752 321.765C197.023 320.857 196.626 319.735 196.626 318.579C196.626 317.424 197.023 316.302 197.752 315.394C198.481 314.486 199.5 313.844 200.646 313.573H258.699C258.906 313.567 259.107 313.642 259.258 313.781C259.409 313.92 259.497 314.112 259.504 314.315V314.899C259.497 315.102 259.409 315.294 259.258 315.434C259.107 315.573 258.906 315.648 258.699 315.642H200.646C199.973 315.801 199.375 316.177 198.947 316.71C198.52 317.243 198.287 317.901 198.287 318.579C198.287 319.257 198.52 319.916 198.947 320.449C199.375 320.981 199.973 321.358 200.646 321.517H258.699C258.906 321.511 259.107 321.586 259.258 321.725C259.409 321.864 259.497 322.057 259.504 322.26V322.844Z" fill="#FFBA55"/>
<path d="M219.57 304.428H275.618V312.621H219.57C218.586 312.621 217.644 312.238 216.948 311.557C216.253 310.875 215.863 309.951 215.863 308.987V308.062C215.863 307.098 216.253 306.174 216.948 305.493C217.644 304.811 218.586 304.428 219.57 304.428V304.428Z" fill="white"/>
<path d="M277.367 312.83C277.36 313.033 277.272 313.225 277.121 313.365C276.97 313.504 276.769 313.579 276.562 313.573H218.509C217.363 313.301 216.344 312.659 215.615 311.751C214.886 310.843 214.49 309.721 214.49 308.566C214.49 307.41 214.886 306.289 215.615 305.381C216.344 304.472 217.363 303.831 218.509 303.559H276.562C276.769 303.553 276.97 303.628 277.121 303.767C277.272 303.906 277.36 304.099 277.367 304.302V304.886C277.36 305.089 277.272 305.281 277.121 305.42C276.97 305.559 276.769 305.634 276.562 305.628H218.509C217.837 305.788 217.238 306.164 216.811 306.697C216.383 307.23 216.15 307.888 216.15 308.566C216.15 309.244 216.383 309.902 216.811 310.435C217.238 310.968 217.837 311.344 218.509 311.504H276.562C276.769 311.498 276.97 311.573 277.121 311.712C277.272 311.851 277.36 312.043 277.367 312.246V312.83Z" fill="#F65B2B"/>
<path d="M415.799 174.415C415.799 174.415 414.565 161.092 428.002 170.173C428.002 170.173 435.65 149.917 459.598 176.842C459.598 176.842 494.752 177.953 481.501 206.897C483.393 211.136 485.955 215.057 489.092 218.514C498.709 229.41 504.57 228.149 512.804 240.464C519.269 250.131 519.922 257.287 520.05 259.185C520.565 265.46 519.191 271.745 516.098 277.262C510.862 286.33 500.111 293.75 488.434 293.402C475.035 293.002 468.266 281.264 460.111 274.034C442.649 258.552 442.013 226.433 440.112 220.926C440.112 220.926 448.912 215.588 441.674 210.168C440.88 209.556 439.959 209.122 438.975 208.899C437.992 208.675 436.97 208.666 435.983 208.873C435.314 208.934 434.691 209.233 434.231 209.713C433.771 210.193 433.506 210.822 433.485 211.48L423.419 192.894C423.419 192.894 414.298 195.536 414.184 184.783C414.184 184.783 404.392 179.81 415.799 174.415Z" fill="#160B07"/>
<path d="M522.593 410.475C522.593 410.475 534.066 376.74 525.088 307.803C525.088 307.803 521.596 284.58 498.152 282.869C474.707 281.158 457.498 318.405 450.515 356.495C443.531 394.585 428.068 428.632 377.438 429.576C377.438 429.576 310.538 440.787 452.979 447.143C452.979 447.143 513.864 447.632 522.593 410.475Z" fill="#935B50"/>
<path d="M439.942 230.062C447.006 230.062 447.018 219.303 439.942 219.303C432.879 219.303 432.867 230.062 439.942 230.062Z" fill="#F73C4F"/>
</svg>
